<mxfile host="app.diagrams.net" modified="2024-06-30T11:57:44.036Z" agent="Mozilla/5.0 (Windows NT 10.0; Win64; x64) AppleWebKit/537.36 (KHTML, like Gecko) Chrome/126.0.0.0 Safari/537.36 Edg/126.0.0.0" etag="4RfoiJjJDDCpJA-568J-" version="24.6.4" type="github">
  <diagram name="第 1 页" id="Skv8fpGebTwqSzIPjtRS">
    <mxGraphModel dx="192" dy="103" grid="1" gridSize="10" guides="1" tooltips="1" connect="1" arrows="1" fold="1" page="1" pageScale="1" pageWidth="1169" pageHeight="827" math="1" shadow="0">
      <root>
        <mxCell id="0" />
        <mxCell id="1" parent="0" />
        <mxCell id="wrFZd82m7ZlRx0uGTqlU-42" value="" style="rounded=1;whiteSpace=wrap;html=1;strokeColor=#CCCCCC;" vertex="1" parent="1">
          <mxGeometry x="150" y="39" width="30" height="50" as="geometry" />
        </mxCell>
        <mxCell id="wrFZd82m7ZlRx0uGTqlU-40" value="" style="rounded=1;whiteSpace=wrap;html=1;strokeColor=#CCCCCC;" vertex="1" parent="1">
          <mxGeometry x="163.75" y="50" width="30" height="50" as="geometry" />
        </mxCell>
        <mxCell id="wrFZd82m7ZlRx0uGTqlU-33" value="" style="rounded=1;whiteSpace=wrap;html=1;strokeColor=#CCCCCC;" vertex="1" parent="1">
          <mxGeometry x="173.75" y="60" width="30" height="50" as="geometry" />
        </mxCell>
        <mxCell id="wrFZd82m7ZlRx0uGTqlU-22" style="edgeStyle=orthogonalEdgeStyle;rounded=0;orthogonalLoop=1;jettySize=auto;html=1;exitX=1;exitY=0.5;exitDx=0;exitDy=0;" edge="1" parent="1" source="wrFZd82m7ZlRx0uGTqlU-18">
          <mxGeometry relative="1" as="geometry">
            <mxPoint x="120" y="110" as="targetPoint" />
          </mxGeometry>
        </mxCell>
        <mxCell id="wrFZd82m7ZlRx0uGTqlU-18" value="" style="rounded=1;whiteSpace=wrap;html=1;" vertex="1" parent="1">
          <mxGeometry x="40" y="20" width="40" height="180" as="geometry" />
        </mxCell>
        <mxCell id="wrFZd82m7ZlRx0uGTqlU-13" value="" style="group;fillColor=#ffe6cc;strokeColor=#d79b00;" vertex="1" connectable="0" parent="1">
          <mxGeometry x="50" y="40" width="20" height="60" as="geometry" />
        </mxCell>
        <mxCell id="wrFZd82m7ZlRx0uGTqlU-10" value="" style="rounded=0;whiteSpace=wrap;html=1;fillColor=#ffe6cc;strokeColor=#d79b00;" vertex="1" parent="wrFZd82m7ZlRx0uGTqlU-13">
          <mxGeometry width="20" height="20" as="geometry" />
        </mxCell>
        <mxCell id="wrFZd82m7ZlRx0uGTqlU-11" value="" style="rounded=0;whiteSpace=wrap;html=1;fillColor=#ffe6cc;strokeColor=#d79b00;" vertex="1" parent="wrFZd82m7ZlRx0uGTqlU-13">
          <mxGeometry y="20" width="20" height="20" as="geometry" />
        </mxCell>
        <mxCell id="wrFZd82m7ZlRx0uGTqlU-12" value="" style="rounded=0;whiteSpace=wrap;html=1;fillColor=#ffe6cc;strokeColor=#d79b00;" vertex="1" parent="wrFZd82m7ZlRx0uGTqlU-13">
          <mxGeometry y="40" width="20" height="20" as="geometry" />
        </mxCell>
        <mxCell id="wrFZd82m7ZlRx0uGTqlU-14" value="" style="group;fillColor=#dae8fc;strokeColor=#6c8ebf;" vertex="1" connectable="0" parent="1">
          <mxGeometry x="50" y="120" width="20" height="60" as="geometry" />
        </mxCell>
        <mxCell id="wrFZd82m7ZlRx0uGTqlU-15" value="" style="rounded=0;whiteSpace=wrap;html=1;fillColor=#dae8fc;strokeColor=#6c8ebf;" vertex="1" parent="wrFZd82m7ZlRx0uGTqlU-14">
          <mxGeometry width="20" height="20" as="geometry" />
        </mxCell>
        <mxCell id="wrFZd82m7ZlRx0uGTqlU-16" value="" style="rounded=0;whiteSpace=wrap;html=1;fillColor=#dae8fc;strokeColor=#6c8ebf;" vertex="1" parent="wrFZd82m7ZlRx0uGTqlU-14">
          <mxGeometry y="20" width="20" height="20" as="geometry" />
        </mxCell>
        <mxCell id="wrFZd82m7ZlRx0uGTqlU-17" value="" style="rounded=0;whiteSpace=wrap;html=1;fillColor=#dae8fc;strokeColor=#6c8ebf;" vertex="1" parent="wrFZd82m7ZlRx0uGTqlU-14">
          <mxGeometry y="40" width="20" height="20" as="geometry" />
        </mxCell>
        <mxCell id="wrFZd82m7ZlRx0uGTqlU-20" value="\(e_u^0\)" style="text;html=1;align=center;verticalAlign=middle;whiteSpace=wrap;rounded=0;" vertex="1" parent="1">
          <mxGeometry x="45" y="20" width="30" height="20" as="geometry" />
        </mxCell>
        <mxCell id="wrFZd82m7ZlRx0uGTqlU-21" value="\(e_i^0\)" style="text;html=1;align=center;verticalAlign=middle;whiteSpace=wrap;rounded=0;" vertex="1" parent="1">
          <mxGeometry x="45" y="180" width="30" height="20" as="geometry" />
        </mxCell>
        <mxCell id="wrFZd82m7ZlRx0uGTqlU-34" value="&lt;font style=&quot;font-size: 6px;&quot;&gt;Layer L&lt;/font&gt;" style="text;html=1;align=center;verticalAlign=middle;whiteSpace=wrap;rounded=0;fontSize=6;" vertex="1" parent="1">
          <mxGeometry x="173.75" y="60" width="30" height="8" as="geometry" />
        </mxCell>
        <mxCell id="wrFZd82m7ZlRx0uGTqlU-39" value="" style="group" vertex="1" connectable="0" parent="1">
          <mxGeometry x="178.75" y="70" width="20" height="40" as="geometry" />
        </mxCell>
        <mxCell id="wrFZd82m7ZlRx0uGTqlU-28" style="rounded=0;orthogonalLoop=1;jettySize=auto;html=1;exitX=1;exitY=0;exitDx=0;exitDy=0;entryX=0;entryY=0.5;entryDx=0;entryDy=0;curved=0;endArrow=none;endFill=0;" edge="1" parent="wrFZd82m7ZlRx0uGTqlU-39" source="wrFZd82m7ZlRx0uGTqlU-23" target="wrFZd82m7ZlRx0uGTqlU-25">
          <mxGeometry relative="1" as="geometry" />
        </mxCell>
        <mxCell id="wrFZd82m7ZlRx0uGTqlU-29" style="rounded=0;orthogonalLoop=1;jettySize=auto;html=1;exitX=1;exitY=0.5;exitDx=0;exitDy=0;entryX=0;entryY=1;entryDx=0;entryDy=0;endArrow=none;endFill=0;" edge="1" parent="wrFZd82m7ZlRx0uGTqlU-39" source="wrFZd82m7ZlRx0uGTqlU-23" target="wrFZd82m7ZlRx0uGTqlU-26">
          <mxGeometry relative="1" as="geometry" />
        </mxCell>
        <mxCell id="wrFZd82m7ZlRx0uGTqlU-23" value="" style="ellipse;whiteSpace=wrap;html=1;aspect=fixed;fillColor=#ffe6cc;strokeColor=#d79b00;" vertex="1" parent="wrFZd82m7ZlRx0uGTqlU-39">
          <mxGeometry y="8" width="6.666666666666666" height="6.666666666666666" as="geometry" />
        </mxCell>
        <mxCell id="wrFZd82m7ZlRx0uGTqlU-30" style="rounded=0;orthogonalLoop=1;jettySize=auto;html=1;exitX=1;exitY=0;exitDx=0;exitDy=0;entryX=0;entryY=1;entryDx=0;entryDy=0;endArrow=none;endFill=0;" edge="1" parent="wrFZd82m7ZlRx0uGTqlU-39" source="wrFZd82m7ZlRx0uGTqlU-24" target="wrFZd82m7ZlRx0uGTqlU-25">
          <mxGeometry relative="1" as="geometry" />
        </mxCell>
        <mxCell id="wrFZd82m7ZlRx0uGTqlU-31" style="rounded=0;orthogonalLoop=1;jettySize=auto;html=1;exitX=1;exitY=0.5;exitDx=0;exitDy=0;entryX=0;entryY=0.5;entryDx=0;entryDy=0;endArrow=none;endFill=0;" edge="1" parent="wrFZd82m7ZlRx0uGTqlU-39" source="wrFZd82m7ZlRx0uGTqlU-24" target="wrFZd82m7ZlRx0uGTqlU-26">
          <mxGeometry relative="1" as="geometry" />
        </mxCell>
        <mxCell id="wrFZd82m7ZlRx0uGTqlU-32" style="rounded=0;orthogonalLoop=1;jettySize=auto;html=1;exitX=1;exitY=0.5;exitDx=0;exitDy=0;entryX=0;entryY=0.5;entryDx=0;entryDy=0;endArrow=none;endFill=0;" edge="1" parent="wrFZd82m7ZlRx0uGTqlU-39" source="wrFZd82m7ZlRx0uGTqlU-24" target="wrFZd82m7ZlRx0uGTqlU-27">
          <mxGeometry relative="1" as="geometry" />
        </mxCell>
        <mxCell id="wrFZd82m7ZlRx0uGTqlU-24" value="" style="ellipse;whiteSpace=wrap;html=1;aspect=fixed;fillColor=#ffe6cc;strokeColor=#d79b00;" vertex="1" parent="wrFZd82m7ZlRx0uGTqlU-39">
          <mxGeometry y="24" width="6.666666666666666" height="6.666666666666666" as="geometry" />
        </mxCell>
        <mxCell id="wrFZd82m7ZlRx0uGTqlU-25" value="" style="ellipse;whiteSpace=wrap;html=1;aspect=fixed;fillColor=#dae8fc;strokeColor=#6c8ebf;" vertex="1" parent="wrFZd82m7ZlRx0uGTqlU-39">
          <mxGeometry x="13.333333333333332" width="6.666666666666666" height="6.666666666666666" as="geometry" />
        </mxCell>
        <mxCell id="wrFZd82m7ZlRx0uGTqlU-26" value="" style="ellipse;whiteSpace=wrap;html=1;aspect=fixed;fillColor=#dae8fc;strokeColor=#6c8ebf;" vertex="1" parent="wrFZd82m7ZlRx0uGTqlU-39">
          <mxGeometry x="13.333333333333332" y="16" width="6.666666666666666" height="6.666666666666666" as="geometry" />
        </mxCell>
        <mxCell id="wrFZd82m7ZlRx0uGTqlU-27" value="" style="ellipse;whiteSpace=wrap;html=1;aspect=fixed;fillColor=#dae8fc;strokeColor=#6c8ebf;" vertex="1" parent="wrFZd82m7ZlRx0uGTqlU-39">
          <mxGeometry x="13.333333333333332" y="32" width="6.666666666666666" height="6.666666666666666" as="geometry" />
        </mxCell>
        <mxCell id="wrFZd82m7ZlRx0uGTqlU-41" value="&lt;font style=&quot;font-size: 6px;&quot;&gt;Layer 2&lt;/font&gt;" style="text;html=1;align=center;verticalAlign=middle;whiteSpace=wrap;rounded=0;fontSize=6;" vertex="1" parent="1">
          <mxGeometry x="163.75" y="50" width="30" height="8" as="geometry" />
        </mxCell>
        <mxCell id="wrFZd82m7ZlRx0uGTqlU-43" value="&lt;font style=&quot;font-size: 6px;&quot;&gt;Layer 1&lt;/font&gt;" style="text;html=1;align=center;verticalAlign=middle;whiteSpace=wrap;rounded=0;fontSize=6;" vertex="1" parent="1">
          <mxGeometry x="150" y="40" width="30" height="8" as="geometry" />
        </mxCell>
      </root>
    </mxGraphModel>
  </diagram>
</mxfile>
